# xmcd
#
# Track frame offsets:
#	150
#	12902
#	26980
#	39332
#	53713
#	67865
#	77875
#	92789
#	107455
#	120585
#	133021
#	145487
#	158333
#	173286
#	186191
#	196822
#	213038
#	226309
#	241534
#	253051
#
# Disc length: 3587 seconds
#
# Revision: 1
# Processed by: cddbd v1.5.1PL0 Copyright (c) Steve Scherf et al.
# Submitted via: audiograbber 1.83.01
#
DISCID=f60e0114
DTITLE=Gudrun Lange und Kactus - Best Of
DYEAR=2004
DGENRE=Country
TTITLE0=Wo sind all die Gefühle
TTITLE1=Ich hab noch lange nicht genug
TTITLE2=Ich hab es gern (Top of the World)
TTITLE3=Auf silbernen Flügeln
TTITLE4=Hey, du da im Spiegel
TTITLE5=Ich tanz' im Regen
TTITLE6=Eine Träne aus Gold
TTITLE7=Ich suche nur dich
TTITLE8=Meine Helden dürfen weinen
TTITLE9=Kein ganzes Leben lang
TTITLE10=Ich lass mir nichts gefallen
TTITLE11=Incognito
TTITLE12=Da wird überhaupt nichts draus
TTITLE13=Ich will Spass
TTITLE14=Keine Angst
TTITLE15=Surrender
TTITLE16=Yellow River Road
TTITLE17=Zertanzte Schuhe
TTITLE18=Himmelblaues Cabrio
TTITLE19=So lang ich noch Träume hab
EXTD=
EXTT0=
EXTT1=
EXTT2=
EXTT3=
EXTT4=
EXTT5=
EXTT6=
EXTT7=
EXTT8=
EXTT9=
EXTT10=
EXTT11=
EXTT12=
EXTT13=
EXTT14=
EXTT15=
EXTT16=
EXTT17=
EXTT18=
EXTT19=
PLAYORDER=
